<svg xmlns="http://www.w3.org/2000/svg" viewBox="0 0 1977.78 1863.32"><defs><style>.cls-1{fill:#2c363f;}</style></defs><g id="Layer_2" data-name="Layer 2"><g id="Layer_1-2" data-name="Layer 1"><path class="cls-1" d="M326.79,190.34q0,40.14-10.32,72.38a196.82,196.82,0,0,1-28.81,57.33,192.12,192.12,0,0,1-44,43.15,251.83,251.83,0,0,1-55.9,29.67,329.54,329.54,0,0,1-64.64,17.19,436,436,0,0,1-70.37,5.59q-13.48,0-26.38-.71T0,412.79L8,28.09A362,362,0,0,1,73,13.9a537.21,537.21,0,0,1,66.37-4.15q41,0,75.39,12.32t59.34,35.55Q299,80.84,312.89,114.38T326.79,190.34ZM209.26,208.69a113.79,113.79,0,0,0-3.3-29.82,71,71,0,0,0-11.75-25.36,61.5,61.5,0,0,0-20.78-17.78q-12.62-6.73-30.1-7.31L131.86,306.15a81.25,81.25,0,0,0,31.25-11.32,94.94,94.94,0,0,0,24.22-21.5A98.31,98.31,0,0,0,203.1,245a106.07,106.07,0,0,0,6.16-32.25Z"/><path class="cls-1" d="M697,393.3,554.82,411.64l-17.2-64.78H472.26l-14.33,64.78L311.74,397.31,425.82,15.48l159.39-8ZM527.3,259.14l-21.78-99.76L484.3,259.14Z"/><path class="cls-1" d="M1098.75,6.88l-20.64,388.71L927.9,409.35,847.64,201.23,835,413.36H706L716.35,6.88,859.68,0l99.18,206.39,4.59-194.92Z"/><path class="cls-1" d="M1282.64,14.33,1251.1,404.76l-121,6.31V22.36Z"/><path class="cls-1" d="M1560.26,254.55l-12,127.28-241.37,18.92q1.73-100,3.87-198.94T1316,2.87h149.06q-6.6,62.78-12.62,125.41t-8.6,126.27q13.47.58,26.66.58h26.66q16.05,0,31.54-.29T1560.26,254.55Z"/><path class="cls-1" d="M1933.91,215.57a208,208,0,0,1-6,50.31,196.61,196.61,0,0,1-17.34,45.43A188.12,188.12,0,0,1,1883,350.15a174.94,174.94,0,0,1-36.41,30.25,176.71,176.71,0,0,1-94.45,26.65,180,180,0,0,1-49.16-6.59A186.51,186.51,0,0,1,1659.29,382a175.47,175.47,0,0,1-36.83-28.66,178.15,178.15,0,0,1-28.1-37.27,191.84,191.84,0,0,1-18.06-44,184.41,184.41,0,0,1-6.45-49,200.18,200.18,0,0,1,23.37-94,195,195,0,0,1,27.37-39,180.16,180.16,0,0,1,36-30.67,172.65,172.65,0,0,1,43.14-20.07,165.55,165.55,0,0,1,49-7.16q41.57,0,75.82,12.9T1883,81.84q24.23,23.94,37.55,57.91T1933.91,215.57ZM1806.63,223a80.72,80.72,0,0,0-3.58-23.94,65.84,65.84,0,0,0-10.46-20.64,53.77,53.77,0,0,0-17.06-14.62,47.78,47.78,0,0,0-23.36-5.58,57,57,0,0,0-24.08,4.87,55,55,0,0,0-18.2,13.33,58.3,58.3,0,0,0-11.61,19.78,71,71,0,0,0-4,23.93,87.36,87.36,0,0,0,3.44,24.08A71.86,71.86,0,0,0,1708,266a54.9,54.9,0,0,0,17.06,15.77q10.17,6,23.65,6a53.93,53.93,0,0,0,24.22-5.3,54.54,54.54,0,0,0,18.2-14.33,65.74,65.74,0,0,0,11.47-20.78A74.8,74.8,0,0,0,1806.63,223Z"/><path class="cls-1" d="M445.18,512.21,418.81,933l-130.72,5.73,1.15-221.87L230.19,895.76H179.73l-45.29-160-.57,185.75-132.44,4L7.17,529.41l147.34-5.73L213,713.45l78-201.24Z"/><path class="cls-1" d="M626.77,526.55,595.24,917l-121,6.3V534.57Z"/><path class="cls-1" d="M995.55,871.68a134.27,134.27,0,0,1-33.25,29.53,218.83,218.83,0,0,1-42.43,20.92,267.62,267.62,0,0,1-46.43,12.47,263.7,263.7,0,0,1-45.3,4.16q-41.57,0-76.53-14.91a182.3,182.3,0,0,1-60.35-41.13,190.18,190.18,0,0,1-39.7-61.78q-14.34-35.54-14.33-76.53a263.56,263.56,0,0,1,27.66-117.68A237,237,0,0,1,697.43,578,210.25,210.25,0,0,1,741,539.73a206.5,206.5,0,0,1,53.32-24.94,210.08,210.08,0,0,1,61.92-8.88q12.32,0,26.37,1a277.31,277.31,0,0,1,27.95,3.44,197.15,197.15,0,0,1,27.09,6.74,125.75,125.75,0,0,1,24.08,10.6l-8,109.51A145.42,145.42,0,0,0,920.59,629a265.6,265.6,0,0,0-33.39-2.15,128,128,0,0,0-42.86,7,102.78,102.78,0,0,0-34.68,20.21,95.3,95.3,0,0,0-23.37,32.11q-8.6,18.91-8.6,42.71a103.19,103.19,0,0,0,4,28.81,74.24,74.24,0,0,0,12.18,24.65,62.64,62.64,0,0,0,20.35,17.34q12.18,6.6,28.24,6.59a93.78,93.78,0,0,0,22.5-2.86,49.19,49.19,0,0,0,19.92-9.75l1.15-22.36-68.8-1.14,3.44-86q42.7-1.44,85.43-2.44t86-2.72Z"/><path class="cls-1" d="M1366.05,611.4q0,21.21-2,46.72t-6.6,52.75q-4.59,27.24-11.89,55.18a396.19,396.19,0,0,1-18.21,53.75A316.64,316.64,0,0,1,1302,868.1a190.27,190.27,0,0,1-33.25,39.27,146.82,146.82,0,0,1-42,26.37q-23.22,9.62-51.6,9.61-33.26,0-57.76-10.75a129.93,129.93,0,0,1-42-29,153.72,153.72,0,0,1-28.67-42.43,265.92,265.92,0,0,1-17.48-51.31,391,391,0,0,1-8.74-55.33q-2.44-28.23-2.44-54.32a800.57,800.57,0,0,1,4-80.12q4-40,11.47-79.83l134.15,5.16q-7.74,45-13.32,90.44a746.27,746.27,0,0,0-5.59,91.3q0,4.88.43,14.47t1.57,21.5q1.14,11.91,3.3,24.37a134.5,134.5,0,0,0,5.87,22.79,58.74,58.74,0,0,0,9,16.91q5.31,6.6,12.47,6.59,8.31,0,14.91-7.88T1208,804.89a212.54,212.54,0,0,0,8.74-30.38q3.72-17.21,6.31-35.84t4.16-37.26q1.56-18.63,2.58-34.69t1.29-28.38q.27-12.32.28-18.34,0-22.37-.71-44.58t-2.15-44.29h134.15Q1366.06,570.7,1366.05,611.4Z"/><path class="cls-1" d="M1666.32,516.8q-1.72,27-3.15,53.32t-3.73,53.32l-121.54,6.3L1535,665.86h85.43l-6.31,88.87-86,2.86-2.86,41.86h121.54q-1.72,31.53-3.58,62.63t-3.3,62.35l-247.1,5.73L1402,516.8Z"/><path class="cls-1" d="M1933.91,766.77l-12,127.27L1680.51,913q1.71-100,3.86-198.94t5.31-198.94h149.06q-6.6,62.77-12.61,125.41t-8.6,126.28q13.47.57,26.66.57h26.66q16.05,0,31.53-.29T1933.91,766.77Z"/><path class="cls-1" d="M267.35,1099.11q31.14-11,82.49-10.95,93.86,0,128.37,46.3,13.46,17.68,13.46,45a68.78,68.78,0,0,1,.43,7.58q0,42.09-49.25,85.44-45,40.83-111.11,65.65Q288,1355,259.35,1355q-11.79,0-20.2-3.37V1089H245q9.68,0,15.58,3.15T267.35,1099.11Zm196.13,83.75q-3.8-37.45-41.67-55.55-28.2-13.47-70.71-13.47l-7.57.42q-40,.84-69,12.63v200.75q29.46,0,73.66-21.46,76.59-37.89,105.22-88Q463.48,1200.54,463.48,1182.86Z"/><path class="cls-1" d="M599.84,1328.06q37,0,111.53-33.67a9.91,9.91,0,0,1,7.58,3.16,10.46,10.46,0,0,1,2.94,7.36q-16.83,28.63-64.39,44.62T568.7,1355q-46.73-12.21-56.82-52.61a212.6,212.6,0,0,1-.84-21.47q0-13.45,6.94-35.56t23.78-41.88a125,125,0,0,1,39.56-31.14,106.69,106.69,0,0,1,48.4-11.36q24.4,0,54.71,16.83,14.31,8,22.73,18.1t8.42,20.62a43.09,43.09,0,0,1-.42,5.89q-.85,25.68-24.83,32.41a90.68,90.68,0,0,1-24.41,3l-60.61-2.53q-30.3,0-46.3,13-9.25,7.15-13,21.46Q556.49,1328.07,599.84,1328.06ZM675,1198a65.53,65.53,0,0,0-19.57-9.68q-10.1-2.94-16.83-2.94t-21.89,4.42a190.05,190.05,0,0,0-26.93,9.89q-29,13.47-29,28.19,33.66,3,50.5,2.95,46.72,0,63.13-8,10.11-4.2,10.1-10.52Q684.43,1204.74,675,1198Z"/><path class="cls-1" d="M891.08,1248.94q46.29,0,46.3,23.57,0,17.67-25.67,41.24-38.31,34.95-103.12,56-2.94,0-6.52-5.89t-5.47-9a25.24,25.24,0,0,0-2.74-4q48.39-16,79.55-38.72,21-15.15,21-24.83t-24.83-9.68q-24.84,0-72.81,11.78a57.47,57.47,0,0,1-37.88-15.57q-13.89-13-13.89-26.3a42.59,42.59,0,0,1,7.58-24.42,91.11,91.11,0,0,1,20.2-20.83,164.3,164.3,0,0,1,29.46-17.68,195.46,195.46,0,0,1,85.44-19.78,124.64,124.64,0,0,1,25.25,2.53q10.1,0,11.78,8.84t1.69,29q-24.84-11.37-56-11.37-38.73,0-64,15.58-26.1,15.15-26.94,39.56,0,11.79,17.26,11.78l30.72-3.36Q867.09,1248.95,891.08,1248.94Z"/><path class="cls-1" d="M962.21,1102.47q0-14.71,17.26-14.73,11.35,0,18.51,5a34.11,34.11,0,0,1,1.27,9,13.73,13.73,0,0,1-3.37,8.63q-3.37,4.21-10.1,4.21a31.43,31.43,0,0,1-13.47-3.16A21.87,21.87,0,0,1,962.21,1102.47Zm39.14,57.24q5.46,78.7,9.26,182.24-2.52,13-20.2,13a25.7,25.7,0,0,1-9.47-1.9q-4.85-1.89-6.1-5.26V1159.71Z"/><path class="cls-1" d="M1150.34,1537.66l-5.89-.42a229.48,229.48,0,0,0-26.94,1.68h-16q-25.26,0-39.56-9.68-7.57-5.06-7.58-15.15l96.8-4.63q44.61-1.26,44.62-48v-23.15l2.1-135.52c0-4.77-.15-8.69-.42-11.78q-68.19,63.56-131.31,63.55-5.48,0-11-.42-28.2,0-28.2-24.83.84-19.36,11.37-42.72a227.08,227.08,0,0,1,27.15-45,236,236,0,0,1,37.66-38.93q32.41-26.51,62.71-26.51,35.35,0,58.08,37.45,6.73,100.18,6.74,142.26t-1.26,69a335.69,335.69,0,0,1-5.69,49.25q-4.41,22.29-11.57,35.35t-16.84,18.94Q1179.38,1537.65,1150.34,1537.66Zm25.25-330.81c-3.36-1.12-8.07-1.68-14.1-1.68s-13.82,2.52-23.35,7.57a130.92,130.92,0,0,0-27.36,19.57,212.21,212.21,0,0,0-24.41,26.73q-27.78,36.2-27.78,57.66,0,6.73,3.79,10.1a14.68,14.68,0,0,0,7.36,1.68,79.92,79.92,0,0,0,12.84-1.47q8.42-1.47,22.94-7.58a213.76,213.76,0,0,0,30.09-15.78,181.68,181.68,0,0,0,28.2-21.46q29.46-26.94,29.46-52.61Q1193.27,1214,1175.59,1206.85Z"/><path class="cls-1" d="M1415.07,1265.35q0-50.07-5.47-73.65,3.36-6.32-10.1-6.31-14.31,0-37,7.15t-37,14.31q-34.08,16.41-37.87,32v114.47h-28.2q-5.47-14.3-5.47-80.38,0-58.92,2.31-86.7t3.58-31.57q10.93-7.14,17.67-7.15,10.51,0,10.53,24.83a162.31,162.31,0,0,1-1.06,18.73q-1,9.06-1.05,12.41,68.19-50.07,105.64-50.08,42.51,0,48.4,68.6,2.52,24,2.53,66.5l-.42,33.25q0,18.52.84,35.77c-2.81,1.69-5,2.53-6.74,2.53-.84-.28-2.67-.7-5.47-1.26a83.18,83.18,0,0,0-10.94-1.27,156.17,156.17,0,0,1-4.63-34.3q-.42-17.46-.42-32.19Z"/><path class="cls-1" d="M1889.39,1325.54q0,11.79-18.51,11.78-12.23,0-31.57-11.36-7.17-4.2-14.52-7.79a36.65,36.65,0,0,0-16.2-3.58q-13,6.75-28.62,15.16-53.88,28.62-94.7,28.62l-13.47-.85h-2.31a55.79,55.79,0,0,1-9-1.68q-18.53-4.62-27.78-13-3-2.94-3-5.68a9.83,9.83,0,0,1,.85-4.42l76.6-122q-18.53-32-23.15-45-6.73-20.62-6.74-48.41,3.38-42.92,28.62-71.12,19.78-21.46,39.56-21.47,15.16,0,23.15,14.73,5.48,9.27,5.47,26.1,0,49.24-46.29,138,1.26,16.85,39.56,48.83,18.51,15.57,31.57,23.14t16.41,7.58q24-13.47,32.83-22.31a157.94,157.94,0,0,0,13-14.31q4.21-5.46,9.26-11.78a268.84,268.84,0,0,1,30.31-32.83q4.2,0,9.26,4t4.63,5c-.29.7-1.55,3.16-3.79,7.36s-6.32,10-12.21,17.26q-22.73,27.78-66.07,59.34Q1889.39,1323,1889.39,1325.54Zm-228.11,5.89q0,7.58,7.15,7.58c.85,0,4.56-.07,11.16-.22a193.46,193.46,0,0,0,24.83-2.52,175.74,175.74,0,0,0,28.83-6.94q24-8,57.24-27.78l-69.87-69.87q-10.09,10.11-23.57,30.31Q1661.28,1314.18,1661.28,1331.43Zm52.61-148.57q19.35-10.93,30.3-50.08a221.11,221.11,0,0,0,8.42-60.19l.42-10.94q0-7.58-3.58-9.68t-12.62-2.1q-9.06,0-17,7.78a61.1,61.1,0,0,0-13,19.15q-9.26,20.63-9.25,50.93A97.84,97.84,0,0,0,1713.89,1182.86Z"/><path class="cls-1" d="M94.79,1758.53q0,7.15-10.1,7.15-7.57,0-18.1-7.15-5-11.37-5.05-54.3t.85-70.91q.82-28,1.68-51.56,2.52-51.35,2.52-54.29,12.21-7.15,20.21-7.16t8,7.16Z"/><path class="cls-1" d="M134.77,1602q-.84-22.73-1.68-40.61T132,1534.83q-.22-8.62-6.95-42.3,3.79-5,7.37-9.68t10.31-4.63q14.73,0,22.73,124.16,4.2,72,4.21,143.94,0,19.37-26.94,19.36l-3.37-.42q0-21.88-1.26-56t-1.89-59.34Q135.62,1624.69,134.77,1602Z"/><path class="cls-1" d="M192.86,1709.28q0-6.72-1.06-18.73t-1.89-26.3q-.85-14.31-.84-29a133.52,133.52,0,0,1,2.52-26.94q5.47-27.35,22.73-27.35,11.77,3.38,15.78,8.41a19.37,19.37,0,0,1,4,12.42q0,7.37-3.79,18.31-13.89,36.62-13.89,66.08a180.92,180.92,0,0,0,1.27,20.62Q224.41,1735,264,1735a107.45,107.45,0,0,0,39.14-7.16q35.36-13,48-30.72a179,179,0,0,0,3.79-33.88q0-14.52-1.05-25.89t-2.53-25q-1.47-13.66-1.89-30.09a25.51,25.51,0,0,1,10.73-2.53q5.27,0,11,5.48t9.68,20.62a186.66,186.66,0,0,1,5.26,35.56q1.26,20.42,1.47,42.3t.21,42.3a315.65,315.65,0,0,0,1.68,35.14q-5,4.64-9.68,4.63-16.83,0-24.83-33.67-5.47,4.63-18.52,11.36-27.78,15.15-65.65,20.21a138.23,138.23,0,0,1-16,.84q-8.83,0-22.09-3.37t-25-15.57Q195.8,1733.27,192.86,1709.28Z"/><path class="cls-1" d="M557.75,1656.67q46.29,0,46.3,23.57,0,17.68-25.68,41.25-38.29,34.93-103.11,56-3,0-6.52-5.89t-5.47-9a25.49,25.49,0,0,0-2.74-4q48.39-16,79.54-38.73,21-15.15,21-24.83t-24.83-9.68q-24.84,0-72.81,11.79a57.45,57.45,0,0,1-37.88-15.57q-13.89-13-13.89-26.31a42.55,42.55,0,0,1,7.57-24.41A91.17,91.17,0,0,1,439.49,1610,163.37,163.37,0,0,1,469,1592.28a195.42,195.42,0,0,1,85.43-19.78,124.67,124.67,0,0,1,25.26,2.52q10.1,0,11.78,8.84t1.68,29q-24.83-11.36-56-11.36-38.73,0-64,15.57-26.1,15.15-26.94,39.56,0,11.79,17.26,11.79l30.72-3.37Q533.76,1656.68,557.75,1656.67Z"/><path class="cls-1" d="M693.69,1724.86l.85-67.34q0-16-2.95-27.36H626.35l-.84-29h63.13V1492.53a20,20,0,0,1,5.05-7.57q5.89-5.89,9.89-5.89a25.53,25.53,0,0,1,6.95.84q2.94.84,6.31,5.89,6.74,27.78,6.74,83.75,0,13.89,1.26,27.36a217.19,217.19,0,0,1,26.93-1.68h21.89a119.47,119.47,0,0,0,14.73-.84l-1.26,30.3L725.68,1623l2.11,145.21q-7.59,3.36-13,3.36Q693.68,1771.57,693.69,1724.86Z"/><path class="cls-1" d="M1011,1611.64Q993.36,1599,965.58,1599a120.3,120.3,0,0,0-48.4,9.68q-42.09,17.68-57.66,45.46a56.41,56.41,0,0,0-6.74,26.93v14.1q0,11.58,4.21,31.15a189,189,0,0,1,4.21,39.77,59.17,59.17,0,0,0-14.31,2.11,32.9,32.9,0,0,1-9.26,1.68,8.19,8.19,0,0,1-6.52-3.37q-2.75-3.36-6.1-13-.43-2.52-1.69-14.3t-3.15-28.62q-1.9-16.83-4.21-36.83t-4.42-39.35q-4.63-42.09-7.16-61.87,0-10.1,14.73-10.1a16,16,0,0,1,13.89,7.36,62.56,62.56,0,0,1,8,16.84,102.67,102.67,0,0,1,4,18.73q1.05,9.26,1.89,13,55.56-49.65,138.05-49.66,9.25,0,19.36.42a40.67,40.67,0,0,1,6.31-.42q3.79,0,7.58,5a22.5,22.5,0,0,1,4.63,14.31Q1022.82,1609.13,1011,1611.64Z"/><path class="cls-1" d="M1207.58,1695.39q-31.56,49.68-84.17,61.45a109.75,109.75,0,0,1-22.1,2.53q-9.9,0-16.41-.21a83.31,83.31,0,0,1-14.52-1.9,51.23,51.23,0,0,1-14.74-5.47q-15.57-8.83-15.57-24.83a79,79,0,0,1-1.68-17q0-9.47,4.21-25T1058,1651.2a164.51,164.51,0,0,1,27.15-33.25q33.24-32,72-41.24a96.38,96.38,0,0,1,20.84-2.53,103.29,103.29,0,0,1,17,1.27q24.4,0,32.83,33.24,5.46,21.06,6.53,58.72t2.1,58.08a194.56,194.56,0,0,0,5.26,37.24h-24.83q-1.69-11.36-2.53-20.2t-1.68-16.41A308.34,308.34,0,0,0,1207.58,1695.39Zm-1.68-65.23q0-24.4-24-24.41a41.91,41.91,0,0,0-5.9-.42q-30.72,0-64.81,29.46a147.11,147.11,0,0,0-27.36,30.3q-16.83,24-16.83,42.93,0,24.84,28.62,29.46,37.88-.84,72.39-34.51a146.69,146.69,0,0,0,24.41-32Q1205.89,1647.85,1205.9,1630.16Z"/><path class="cls-1" d="M1431.69,1720.86q17.05-6.94,33.46-12.84a92.78,92.78,0,0,1,31.36-5.89q14.94,0,14.94,9.26a32.36,32.36,0,0,1-1,6.52q-1.07,4.42-11.37,10.52a153.57,153.57,0,0,1-25.25,11.58q-14.94,5.48-32.62,10.1t-34.51,8q-34.94,7.17-49.66,7.16a164.17,164.17,0,0,1-31.78-3.37,119.73,119.73,0,0,1-31.77-10.94q-34.1-17.67-34.09-52.19v-10.1q0-7.58,6.31-21.67t18.94-28.2a170.73,170.73,0,0,1,29.46-25.89q35.36-25.25,74.07-32.82,13.47-2.94,22.52-2.95t14.94.21q5.9.21,12.21.84a28.46,28.46,0,0,1,10.94,3.16q10.93,5.48,10.94,21.46,0,10.11-14.31,19.78c-2.52,1.69-4.77,3.23-6.73,4.63a70.8,70.8,0,0,0-5.47-16.41q-3.37-6.73-14.73-6.73-49.67,10.52-85.44,31.56-40.41,24-40.4,50.51a49.22,49.22,0,0,0,.42,6.31q0,26.94,20.62,38.3,15.57,8.41,40.19,8.42t42.72-5.69Q1414.64,1727.81,1431.69,1720.86Zm-108.37,41q0-8.42,5-8.42t8.84,5.69q3.78,5.67,2.1,6.94,0,11.37.42,20.2t8,8.84q9.26-.84,20-.84a63.35,63.35,0,0,1,22.1,4.21q16.83,6.72,16.83,22.3,0,16.83-19.78,30.31-17.26,12.2-39.56,12.2a79.57,79.57,0,0,1-24.41-4.21q-1.26,0-1.26-2.1c0-1.41.06-3.09.21-5s.27-3.86.42-5.68-.08-3-.63-3.58q4.62.42,11.36.42a109.06,109.06,0,0,0,17.68-1.89,106.44,106.44,0,0,0,21-5.9q10.1-4,15.15-8.62,10.94-10.11-12.62-13.47a88.05,88.05,0,0,0-13.89-.84q-8.85,0-22.31,1.26-14.31,0-14.31-45.45A59.21,59.21,0,0,1,1323.32,1761.89Z"/><path class="cls-1" d="M1699.58,1695.39q-31.56,49.68-84.18,61.45a109.58,109.58,0,0,1-22.09,2.53q-9.9,0-16.41-.21a83.53,83.53,0,0,1-14.53-1.9,51.28,51.28,0,0,1-14.73-5.47q-15.57-8.83-15.57-24.83a79,79,0,0,1-1.68-17q0-9.47,4.21-25T1550,1651.2a164.51,164.51,0,0,1,27.15-33.25q33.24-32,72-41.24a96.3,96.3,0,0,1,20.84-2.53,103.29,103.29,0,0,1,17,1.27q24.4,0,32.83,33.24,5.46,21.06,6.52,58.72t2.11,58.08a194.56,194.56,0,0,0,5.26,37.24h-24.83q-1.69-11.36-2.53-20.2t-1.68-16.41A308.34,308.34,0,0,0,1699.58,1695.39Zm-102.27-168.77q-13.49,0-36.2,34.1a32.92,32.92,0,0,1-8.2-1.69,9.27,9.27,0,0,1-7-7.15,106.78,106.78,0,0,1,18.94-35.78q12.63-15.55,26.52-21a21.42,21.42,0,0,1,7.57-1.26q4.2,0,10.31,4.42a101.59,101.59,0,0,1,13.68,12.41q7.57,8,15.57,15.15t17,7.16q9,0,14.31-3a33.79,33.79,0,0,0,9.68-8.42q4.41-5.46,9.68-13.46a131,131,0,0,1,14.94-18.1q2.52,0,5.26,4.42a17.54,17.54,0,0,1,3,7.57c.13,2.11.21,4.71.21,7.79s-1.06,7.15-3.16,12.2a50.85,50.85,0,0,1-10.31,15.16q-18.53,19.78-44.61,19.78-19.36,0-31.15-13-8.42-7.58-14.31-12.42T1597.31,1526.62Zm100.59,103.54q0-24.4-24-24.41a41.91,41.91,0,0,0-5.9-.42q-30.72,0-64.81,29.46a147.11,147.11,0,0,0-27.36,30.3q-16.83,24-16.83,42.93,0,24.84,28.62,29.46,37.88-.84,72.39-34.51a146.69,146.69,0,0,0,24.41-32Q1697.89,1647.85,1697.9,1630.16Z"/><path class="cls-1" d="M1764,1685.29q0-49.65,42.93-80,34.1-24,82.07-29h11.79q9.24,0,24.83,5.47,34.5,11.79,47.14,41.67,5,11.77,5,20a110.52,110.52,0,0,1-.42,11.57q0,52.62-40,82.91-37,27.78-92.59,27.78-40,0-60.39-18.52T1764,1685.29Zm29,10.1q0,26.1,13.89,35.36,10.51,6.74,35.35,6.73t43.78-3.79a99.27,99.27,0,0,0,33.67-13q31.56-20.2,31.56-62.71,0-25.26-13.47-41.25-14.73-17.25-38.72-17.25-16.41,2.94-33,6.31a88.75,88.75,0,0,0-31.35,13Q1802.69,1639.43,1793,1695.39Z"/><polygon class="cls-1" points="52.03 1067.41 50.6 1364.66 151.81 1216.04 52.03 1067.41"/></g></g></svg>