<svg xmlns="http://www.w3.org/2000/svg" viewBox="0 0 1021.28 657.63"><defs><style>.cls-1{fill:#2c363f;}</style></defs><g id="Layer_2" data-name="Layer 2"><g id="Layer_1-2" data-name="Layer 1"><path class="cls-1" d="M0,36.27V657.63l976.77-49.52L1021.28,0ZM411.69,370.78q-11.2,35-31.26,62.2a208.77,208.77,0,0,1-47.74,46.81A273.07,273.07,0,0,1,272.05,512a356.85,356.85,0,0,1-70.13,18.66,472.65,472.65,0,0,1-76.35,6.07q-14.62,0-28.62-.78t-28.61-2.33l8.71-417.36a391.11,391.11,0,0,1,70.44-15.4,583.59,583.59,0,0,1,72-4.51q44.47,0,81.79,13.37t64.38,38.57q27.06,25.19,42.14,61.58t15.08,82.41Q422.88,335.79,411.69,370.78ZM900.11,542.3l-141.82,6.22,1.25-240.72L695.47,501.87H640.73L591.6,328.33,591,529.86l-143.68,4.35,6.22-429.8,159.86-6.22,63.44,205.88L761.4,85.75H928.72Z"/><path class="cls-1" d="M279.05,252.29A66.76,66.76,0,0,0,256.5,233q-13.69-7.31-32.66-7.93L211.4,417.9a88.12,88.12,0,0,0,33.9-12.29,102.73,102.73,0,0,0,26.28-23.32,106.81,106.81,0,0,0,17.11-30.79,115.24,115.24,0,0,0,6.68-35v-4.35a123.37,123.37,0,0,0-3.57-32.35A77.48,77.48,0,0,0,279.05,252.29Z"/></g></g></svg>